<svg width="96" height="96" viewBox="0 0 96 96" fill="none" xmlns="http://www.w3.org/2000/svg">
<path d="M20 84C17.8 84 15.9167 83.2167 14.35 81.65C12.7833 80.0833 12 78.2 12 76V16C12 14.8667 12.3833 13.9167 13.15 13.15C13.9167 12.3833 14.8667 12 16 12C17.1333 12 18.0833 12.3833 18.85 13.15C19.6167 13.9167 20 14.8667 20 16V76H80C81.1333 76 82.0833 76.3833 82.85 77.15C83.6167 77.9167 84 78.8667 84 80C84 81.1333 83.6167 82.0833 82.85 82.85C82.0833 83.6167 81.1333 84 80 84H20ZM28 72C26.8667 72 25.9167 71.6167 25.15 70.85C24.3833 70.0833 24 69.1333 24 68V40C24 38.8667 24.3833 37.9167 25.15 37.15C25.9167 36.3833 26.8667 36 28 36H36C37.1333 36 38.0833 36.3833 38.85 37.15C39.6167 37.9167 40 38.8667 40 40V68C40 69.1333 39.6167 70.0833 38.85 70.85C38.0833 71.6167 37.1333 72 36 72H28ZM48 72C46.8667 72 45.9167 71.6167 45.15 70.85C44.3833 70.0833 44 69.1333 44 68V20C44 18.8667 44.3833 17.9167 45.15 17.15C45.9167 16.3833 46.8667 16 48 16H56C57.1333 16 58.0833 16.3833 58.85 17.15C59.6167 17.9167 60 18.8667 60 20V68C60 69.1333 59.6167 70.0833 58.85 70.85C58.0833 71.6167 57.1333 72 56 72H48ZM68 72C66.8667 72 65.9167 71.6167 65.15 70.85C64.3833 70.0833 64 69.1333 64 68V56C64 54.8667 64.3833 53.9167 65.15 53.15C65.9167 52.3833 66.8667 52 68 52H76C77.1333 52 78.0833 52.3833 78.85 53.15C79.6167 53.9167 80 54.8667 80 56V68C80 69.1333 79.6167 70.0833 78.85 70.85C78.0833 71.6167 77.1333 72 76 72H68Z" fill="white"/>
</svg>
